<mxfile host="app.diagrams.net" modified="2020-09-22T06:19:12.184Z" agent="5.0 (Macintosh; Intel Mac OS X 10_15_6) AppleWebKit/537.36 (KHTML, like Gecko) Chrome/85.0.4183.102 Safari/537.36" etag="yoWGfeNJsh2RwfLeXmZJ" version="13.7.3" type="github">
  <diagram id="C5RBs43oDa-KdzZeNtuy" name="Page-1">
    <mxGraphModel dx="1426" dy="826" grid="1" gridSize="10" guides="1" tooltips="1" connect="1" arrows="1" fold="1" page="1" pageScale="1" pageWidth="827" pageHeight="1169" math="0" shadow="0">
      <root>
        <mxCell id="WIyWlLk6GJQsqaUBKTNV-0" />
        <mxCell id="WIyWlLk6GJQsqaUBKTNV-1" parent="WIyWlLk6GJQsqaUBKTNV-0" />
        <mxCell id="Y-JooA1RZPzK_qPSvJyh-0" style="edgeStyle=orthogonalEdgeStyle;rounded=0;orthogonalLoop=1;jettySize=auto;html=1;" edge="1" parent="WIyWlLk6GJQsqaUBKTNV-1" source="WIyWlLk6GJQsqaUBKTNV-3">
          <mxGeometry relative="1" as="geometry">
            <mxPoint x="260" y="100" as="targetPoint" />
          </mxGeometry>
        </mxCell>
        <mxCell id="WIyWlLk6GJQsqaUBKTNV-3" value="User Clicks Log In btn" style="rounded=1;whiteSpace=wrap;html=1;fontSize=12;glass=0;strokeWidth=1;shadow=0;" parent="WIyWlLk6GJQsqaUBKTNV-1" vertex="1">
          <mxGeometry x="100" y="60" width="120" height="80" as="geometry" />
        </mxCell>
        <mxCell id="WIyWlLk6GJQsqaUBKTNV-7" value="Auth0 SDK redirects to Auth0 Hosted Page (Hosted on Auth0 servers)" style="rounded=1;whiteSpace=wrap;html=1;fontSize=12;glass=0;strokeWidth=1;shadow=0;" parent="WIyWlLk6GJQsqaUBKTNV-1" vertex="1">
          <mxGeometry x="260" y="60" width="120" height="80" as="geometry" />
        </mxCell>
        <mxCell id="Y-JooA1RZPzK_qPSvJyh-2" value="Auth0 Page (not part of your website) allows user to SignIn or SignUp" style="rounded=1;whiteSpace=wrap;html=1;fontSize=12;glass=0;strokeWidth=1;shadow=0;" vertex="1" parent="WIyWlLk6GJQsqaUBKTNV-1">
          <mxGeometry x="420" y="60" width="120" height="80" as="geometry" />
        </mxCell>
        <mxCell id="Y-JooA1RZPzK_qPSvJyh-4" style="edgeStyle=orthogonalEdgeStyle;rounded=0;orthogonalLoop=1;jettySize=auto;html=1;" edge="1" parent="WIyWlLk6GJQsqaUBKTNV-1">
          <mxGeometry relative="1" as="geometry">
            <mxPoint x="420" y="99.5" as="targetPoint" />
            <mxPoint x="380" y="99.5" as="sourcePoint" />
            <Array as="points">
              <mxPoint x="410" y="99.5" />
              <mxPoint x="410" y="99.5" />
            </Array>
          </mxGeometry>
        </mxCell>
        <mxCell id="Y-JooA1RZPzK_qPSvJyh-5" value="User Credentials are securely sent to Auth0" style="rounded=1;whiteSpace=wrap;html=1;fontSize=12;glass=0;strokeWidth=1;shadow=0;" vertex="1" parent="WIyWlLk6GJQsqaUBKTNV-1">
          <mxGeometry x="580" y="60" width="120" height="80" as="geometry" />
        </mxCell>
        <mxCell id="Y-JooA1RZPzK_qPSvJyh-6" style="edgeStyle=orthogonalEdgeStyle;rounded=0;orthogonalLoop=1;jettySize=auto;html=1;" edge="1" parent="WIyWlLk6GJQsqaUBKTNV-1">
          <mxGeometry relative="1" as="geometry">
            <mxPoint x="580" y="99.5" as="targetPoint" />
            <mxPoint x="540" y="99.5" as="sourcePoint" />
            <Array as="points">
              <mxPoint x="570" y="99.5" />
              <mxPoint x="570" y="99.5" />
            </Array>
          </mxGeometry>
        </mxCell>
        <mxCell id="Y-JooA1RZPzK_qPSvJyh-7" value="If the User Credentials match, Auth0 returns a JWT token" style="rounded=1;whiteSpace=wrap;html=1;fontSize=12;glass=0;strokeWidth=1;shadow=0;" vertex="1" parent="WIyWlLk6GJQsqaUBKTNV-1">
          <mxGeometry x="580" y="180" width="120" height="80" as="geometry" />
        </mxCell>
        <mxCell id="Y-JooA1RZPzK_qPSvJyh-8" style="edgeStyle=orthogonalEdgeStyle;rounded=0;orthogonalLoop=1;jettySize=auto;html=1;entryX=0.5;entryY=0;entryDx=0;entryDy=0;exitX=0.5;exitY=1;exitDx=0;exitDy=0;" edge="1" parent="WIyWlLk6GJQsqaUBKTNV-1" source="Y-JooA1RZPzK_qPSvJyh-5" target="Y-JooA1RZPzK_qPSvJyh-7">
          <mxGeometry relative="1" as="geometry">
            <mxPoint x="650" y="160" as="targetPoint" />
            <mxPoint x="610" y="160" as="sourcePoint" />
            <Array as="points" />
          </mxGeometry>
        </mxCell>
        <mxCell id="Y-JooA1RZPzK_qPSvJyh-10" value="The JWT token is saved in local browser storage" style="rounded=1;whiteSpace=wrap;html=1;fontSize=12;glass=0;strokeWidth=1;shadow=0;" vertex="1" parent="WIyWlLk6GJQsqaUBKTNV-1">
          <mxGeometry x="420" y="180" width="120" height="80" as="geometry" />
        </mxCell>
        <mxCell id="Y-JooA1RZPzK_qPSvJyh-13" style="edgeStyle=orthogonalEdgeStyle;rounded=0;orthogonalLoop=1;jettySize=auto;html=1;exitX=0;exitY=0.5;exitDx=0;exitDy=0;entryX=1;entryY=0.5;entryDx=0;entryDy=0;" edge="1" parent="WIyWlLk6GJQsqaUBKTNV-1" source="Y-JooA1RZPzK_qPSvJyh-7" target="Y-JooA1RZPzK_qPSvJyh-10">
          <mxGeometry relative="1" as="geometry">
            <mxPoint x="550" y="180" as="targetPoint" />
            <mxPoint x="550" y="109.5" as="sourcePoint" />
            <Array as="points" />
          </mxGeometry>
        </mxCell>
        <mxCell id="Y-JooA1RZPzK_qPSvJyh-14" value="We use React to check if a JWT token is present in local browser storage" style="rounded=1;whiteSpace=wrap;html=1;fontSize=12;glass=0;strokeWidth=1;shadow=0;" vertex="1" parent="WIyWlLk6GJQsqaUBKTNV-1">
          <mxGeometry x="260" y="180" width="120" height="80" as="geometry" />
        </mxCell>
        <mxCell id="Y-JooA1RZPzK_qPSvJyh-15" style="edgeStyle=orthogonalEdgeStyle;rounded=0;orthogonalLoop=1;jettySize=auto;html=1;exitX=0;exitY=0.5;exitDx=0;exitDy=0;entryX=1;entryY=0.5;entryDx=0;entryDy=0;" edge="1" parent="WIyWlLk6GJQsqaUBKTNV-1" target="Y-JooA1RZPzK_qPSvJyh-14">
          <mxGeometry relative="1" as="geometry">
            <mxPoint x="390" y="180" as="targetPoint" />
            <mxPoint x="420" y="220" as="sourcePoint" />
            <Array as="points" />
          </mxGeometry>
        </mxCell>
        <mxCell id="Y-JooA1RZPzK_qPSvJyh-16" value="If Yes, User is Authenticated" style="rounded=1;whiteSpace=wrap;html=1;fontSize=12;glass=0;strokeWidth=1;shadow=0;" vertex="1" parent="WIyWlLk6GJQsqaUBKTNV-1">
          <mxGeometry x="100" y="180" width="120" height="80" as="geometry" />
        </mxCell>
        <mxCell id="Y-JooA1RZPzK_qPSvJyh-17" style="edgeStyle=orthogonalEdgeStyle;rounded=0;orthogonalLoop=1;jettySize=auto;html=1;exitX=0;exitY=0.5;exitDx=0;exitDy=0;entryX=1;entryY=0.5;entryDx=0;entryDy=0;" edge="1" parent="WIyWlLk6GJQsqaUBKTNV-1" target="Y-JooA1RZPzK_qPSvJyh-16">
          <mxGeometry relative="1" as="geometry">
            <mxPoint x="230" y="180" as="targetPoint" />
            <mxPoint x="260" y="220" as="sourcePoint" />
            <Array as="points" />
          </mxGeometry>
        </mxCell>
        <mxCell id="Y-JooA1RZPzK_qPSvJyh-20" value="Text" style="text;html=1;strokeColor=none;fillColor=none;align=center;verticalAlign=middle;whiteSpace=wrap;rounded=0;" vertex="1" parent="WIyWlLk6GJQsqaUBKTNV-1">
          <mxGeometry x="390" y="200" width="40" height="20" as="geometry" />
        </mxCell>
        <mxCell id="Y-JooA1RZPzK_qPSvJyh-21" value="&lt;h1&gt;Google O-Auth setup&lt;br&gt;&lt;/h1&gt;&lt;div&gt;1. Create a Project.&lt;/div&gt;&lt;div&gt;2. Go to Credentials.&lt;/div&gt;&lt;div&gt;3. Select Create OAuth Client ID.&lt;/div&gt;&lt;div&gt;4. Setup the consent screen.&lt;/div&gt;&lt;div&gt;5. Enter Name of Application &amp;amp; put auth0.com as the authorized domain.&lt;/div&gt;&lt;div&gt;6. Save.&lt;/div&gt;&lt;div&gt;7. Select Web Application.&lt;/div&gt;&lt;div&gt;8. For JS origons put your application auth0 domain.&lt;/div&gt;&lt;div&gt;9. For URI redirect put your auth0 domain &amp;amp; add/login/callback.&lt;/div&gt;&lt;div&gt;&lt;br&gt;&lt;/div&gt;" style="text;html=1;strokeColor=none;fillColor=none;spacing=5;spacingTop=-20;whiteSpace=wrap;overflow=hidden;rounded=0;" vertex="1" parent="WIyWlLk6GJQsqaUBKTNV-1">
          <mxGeometry x="80" y="280" width="640" height="180" as="geometry" />
        </mxCell>
        <mxCell id="Y-JooA1RZPzK_qPSvJyh-22" value="&lt;h1&gt;Facbook O-Auth setup&lt;br&gt;&lt;/h1&gt;&lt;div&gt;1. Click on Apps &amp;amp; hit add new app.&lt;/div&gt;&lt;div&gt;2. Click on Facebook login.&lt;/div&gt;&lt;div&gt;3. Next you will se the quickstart on the left hand side tab.&lt;/div&gt;&lt;div&gt;4. Choose the web app.&lt;/div&gt;&lt;div&gt;5. Ad auth0.com to valid URLs.&lt;/div&gt;&lt;div&gt;6. Click on the Facebook Login &amp;gt; Settings tab in the left hand side &amp;amp; enter your auth0 domain in the valid Oauth redirect URLs .&lt;/div&gt;&lt;div&gt;7. After click on the Settings &amp;gt; Basic tab where you will find you client id &amp;amp; client secret.&lt;/div&gt;&lt;div&gt;8. Next copy these credentials in to the auth0 dashboard.&lt;/div&gt;&lt;div&gt;&lt;br&gt;&lt;/div&gt;" style="text;html=1;strokeColor=none;fillColor=none;spacing=5;spacingTop=-20;whiteSpace=wrap;overflow=hidden;rounded=0;" vertex="1" parent="WIyWlLk6GJQsqaUBKTNV-1">
          <mxGeometry x="80" y="480" width="640" height="180" as="geometry" />
        </mxCell>
      </root>
    </mxGraphModel>
  </diagram>
</mxfile>
